<svg width="2060" height="760" viewBox="0 0 2060 760" fill="none" xmlns="http://www.w3.org/2000/svg">
<path d="M1742.8 2.5C1916.61 2.5 2057.5 143.913 2057.5 318.336C2057.5 492.758 1916.61 634.171 1742.8 634.171C1568.99 634.171 1428.11 492.758 1428.11 318.336C1428.11 143.913 1568.99 2.50007 1742.8 2.5Z" fill="#404040" stroke="black" stroke-width="5"/>
<path d="M1203.33 353.436V652.233H1403.14V757.5H1098.43V353.436H1203.33Z" fill="#404040" stroke="black" stroke-width="5"/>
<path d="M1403.4 228.5V634.569H1298.5V228.5H1403.4Z" fill="#404040" stroke="black" stroke-width="5"/>
<path d="M1010.02 602.099C1052.79 602.099 1087.45 636.895 1087.45 679.799C1087.45 722.703 1052.79 757.5 1010.02 757.5C967.249 757.5 932.593 722.703 932.593 679.799C932.593 636.895 967.249 602.099 1010.02 602.099Z" fill="#404040" stroke="black" stroke-width="5"/>
<path d="M1087.45 351.43V456.698H887.641V501.832H987.543V607.098H887.641V757.5H782.739V351.43H1087.45Z" fill="#404040" stroke="black" stroke-width="5"/>
<path d="M757.769 351.43V456.698H657.865V657.232H552.963V456.698H453.061V351.43H757.769Z" fill="#404040" stroke="black" stroke-width="5"/>
<path d="M433.084 451.698V451.729C488.493 453.061 532.987 498.556 532.987 554.465C532.987 609.243 490.277 654.021 436.438 657.065L532.258 753.235L536.507 757.5H328.182V451.698H433.084Z" fill="#404040" stroke="black" stroke-width="5"/>
<path d="M244.766 602.099C287.536 602.099 322.192 636.895 322.193 679.799C322.193 722.703 287.536 757.5 244.766 757.5C201.996 757.5 167.339 722.703 167.339 679.799C167.339 636.895 201.996 602.099 244.766 602.099Z" fill="#404040" stroke="black" stroke-width="5"/>
<path d="M157.354 294.278V294.463C159.835 294.342 162.332 294.278 164.844 294.278C248.995 294.278 317.198 362.743 317.198 447.179C317.198 531.616 248.995 600.08 164.844 600.08C162.332 600.08 159.835 600.017 157.354 599.896V750.481H2.5V294.278H157.354Z" fill="#404040" stroke="black" stroke-width="5"/>
</svg>
