<svg width="2183" height="1206" viewBox="0 0 2183 1206" fill="none" xmlns="http://www.w3.org/2000/svg">
<circle cx="1840.5" cy="863.5" r="327.5" fill="white" stroke="black" stroke-width="30"/>
<path d="M862 689V987H1062V1117H732V689H862Z" fill="white" stroke="black" stroke-width="30"/>
<path d="M1343 711V1141H1213V711H1343Z" fill="white" stroke="black" stroke-width="30"/>
<circle cx="516" cy="1029" r="90" fill="white" stroke="black" stroke-width="30"/>
<path d="M345 689V819H145V839H245V969H145V1119H15V689H345Z" fill="white" stroke="black" stroke-width="30"/>
<path d="M1443 202V332H1343V532H1213V332H1113V202H1443Z" fill="white" stroke="black" stroke-width="30"/>
<path d="M847 202C910.513 202 962 253.487 962 317C962 369.493 926.829 413.77 878.768 427.555L983.213 532H732V202H847Z" fill="white" stroke="black" stroke-width="30"/>
<circle cx="516" cy="442" r="90" fill="white" stroke="black" stroke-width="30"/>
<path d="M203 15V15.0781C291.814 17.7215 363 90.5457 363 180C363 269.454 291.814 342.279 203 344.922V495H23V15H203Z" fill="white" stroke="black" stroke-width="30"/>
</svg>
