<svg width="2349" height="821" viewBox="0 0 2349 821" fill="none" xmlns="http://www.w3.org/2000/svg">
<path d="M2006.2 15C2186.95 15 2333.39 162.053 2333.39 343.336C2333.39 524.619 2186.95 671.671 2006.2 671.671C1825.44 671.671 1679 524.619 1679 343.336C1679 162.053 1825.44 15.0001 2006.2 15Z" stroke="black" stroke-width="30"/>
<path d="M1466.9 374V672.797H1666.71V803.064H1337V374H1466.9Z" stroke="black" stroke-width="30"/>
<path d="M1666.9 223V654.069H1537V223H1666.9Z" stroke="black" stroke-width="30"/>
<path d="M1234.93 625C1284.64 625 1324.85 665.436 1324.85 715.2C1324.85 764.965 1284.64 805.401 1234.93 805.401C1185.21 805.401 1145 764.965 1145 715.2C1145 665.436 1185.21 625 1234.93 625Z" stroke="black" stroke-width="30"/>
<path d="M1263.71 373.93V504.198H1063.9V524.332H1163.8V654.598H1063.9V805H934V373.93H1263.71Z" stroke="black" stroke-width="30"/>
<path d="M885.708 328V458.268H785.805V658.802H655.902V458.268H556V328H885.708Z" stroke="black" stroke-width="30"/>
<path d="M517.902 474C581.413 474 632.805 525.659 632.805 589.268C632.805 641.863 597.668 686.287 549.598 700.094L628.431 779.215L653.925 804.802H403V474H517.902Z" stroke="black" stroke-width="30"/>
<path d="M300.927 625C350.643 625 390.853 665.436 390.854 715.2C390.854 764.965 350.644 805.401 300.927 805.401C251.21 805.401 211 764.965 211 715.2C211 665.436 251.21 625 300.927 625Z" stroke="black" stroke-width="30"/>
<path d="M194.854 316.778V316.856C283.63 319.514 354.698 392.562 354.698 482.179C354.698 571.797 283.63 644.844 194.854 647.502V797.981H15V316.778H194.854Z" stroke="black" stroke-width="30"/>
</svg>
