<svg width="761" height="1665" viewBox="0 0 761 1665" fill="none" xmlns="http://www.w3.org/2000/svg">
<circle cx="330.5" cy="1347.5" r="315" stroke="black" stroke-width="5"/>
<path d="M430.5 584.5V882.5H630.5V987.5H325.5V584.5H430.5Z" stroke="black" stroke-width="5"/>
<path d="M625.5 459.5V864.5H520.5V459.5H625.5Z" stroke="black" stroke-width="5"/>
<circle cx="237" cy="910" r="77.5" stroke="black" stroke-width="5"/>
<path d="M314.5 582.5V687.5H114.5V732.5H214.5V837.5H114.5V987.5H9.5V582.5H314.5Z" stroke="black" stroke-width="5"/>
<path d="M758.5 59.5V164.5H658.5V364.5H553.5V164.5H453.5V59.5H758.5Z" stroke="black" stroke-width="5"/>
<path d="M431 159.5C487.609 159.5 533.5 205.391 533.5 262C533.5 316.64 490.746 361.291 436.867 364.332L537.035 464.5H328.5V159.5H431Z" stroke="black" stroke-width="5"/>
<circle cx="245" cy="387" r="77.5" stroke="black" stroke-width="5"/>
<path d="M157.5 2.5V2.68359C159.985 2.56325 162.485 2.5 165 2.5C249.223 2.5 317.5 70.7766 317.5 155C317.5 239.223 249.223 307.5 165 307.5C162.485 307.5 159.985 307.437 157.5 307.316V457.5H2.5V2.5H157.5Z" stroke="black" stroke-width="5"/>
</svg>
