<svg width="811" height="1715" viewBox="0 0 811 1715" fill="none" xmlns="http://www.w3.org/2000/svg">
<circle cx="355.5" cy="1372.5" r="327.5" fill="white" stroke="black" stroke-width="30"/>
<path d="M468 597V895H668V1025H338V597H468Z" fill="white" stroke="black" stroke-width="30"/>
<path d="M668 453V883H538V453H668Z" fill="white" stroke="black" stroke-width="30"/>
<circle cx="262" cy="935" r="90" fill="white" stroke="black" stroke-width="30"/>
<path d="M352 595V725H152V745H252V875H152V1025H22V595H352Z" fill="white" stroke="black" stroke-width="30"/>
<path d="M796 72V202H696V402H566V202H466V72H796Z" fill="white" stroke="black" stroke-width="30"/>
<path d="M456 172C519.513 172 571 223.487 571 287C571 339.493 535.829 383.77 487.768 397.555L592.213 502H341V172H456Z" fill="white" stroke="black" stroke-width="30"/>
<circle cx="270" cy="412" r="90" fill="white" stroke="black" stroke-width="30"/>
<path d="M195 15V15.0781C283.814 17.7215 355 90.5457 355 180C355 269.454 283.814 342.279 195 344.922V495H15V15H195Z" fill="white" stroke="black" stroke-width="30"/>
</svg>
